<svg width="21" height="21" viewBox="0 0 21 21" fill="none" xmlns="http://www.w3.org/2000/svg">
<path d="M13.3227 18.4987V15.1654C13.4387 14.1214 13.1394 13.0738 12.4894 12.2487C14.9894 12.2487 17.4894 10.582 17.4894 7.66536C17.5561 6.6237 17.2644 5.5987 16.6561 4.7487C16.8894 3.79036 16.8894 2.79036 16.6561 1.83203C16.6561 1.83203 15.8227 1.83203 14.1561 3.08203C11.9561 2.66536 9.68941 2.66536 7.48941 3.08203C5.82274 1.83203 4.98941 1.83203 4.98941 1.83203C4.73941 2.79036 4.73941 3.79036 4.98941 4.7487C4.38264 5.59527 4.08814 6.62602 4.15608 7.66536C4.15608 10.582 6.65608 12.2487 9.15608 12.2487C8.83108 12.657 8.58941 13.1237 8.44774 13.6237C8.30608 14.1237 8.26441 14.6487 8.32274 15.1654V18.4987" stroke="white" stroke-width="1.33333" stroke-linecap="round" stroke-linejoin="round"/>
<path d="M8.32357 15.1657C4.56523 16.8324 4.1569 13.499 2.49023 13.499" stroke="white" stroke-width="1.33333" stroke-linecap="round" stroke-linejoin="round"/>
</svg>
