<svg width="300" height="300" viewBox="0 0 300 300" fill="none" xmlns="http://www.w3.org/2000/svg">
<mask id="mask0_62_9811" style="mask-type:luminance" maskUnits="userSpaceOnUse" x="0" y="0" width="300" height="300">
<path d="M234.375 0C270.619 0 300 29.3815 300 65.625L300 234.375C300 270.619 270.619 300 234.375 300L65.625 300C29.3815 300 -3.05176e-05 270.619 -3.05176e-05 234.375L-3.05176e-05 65.625C-3.05176e-05 29.3815 29.3815 0 65.625 0L234.375 0Z" fill="white"/>
</mask>
<g mask="url(#mask0_62_9811)">
<path d="M150.207 1.1055C200.652 1.1055 244.487 25.5832 271.377 62.9061C272.29 64.173 272.308 65.8921 273.181 67.1874C281.012 78.8092 274.768 112.539 279.103 126.14C283.69 140.533 290.605 144.262 290.605 160.114C290.605 188.791 279.755 198.916 265.516 219.649C239.18 257.997 203.683 286.144 149.318 286.144C65.559 286.144 14.2587 233.812 14.2587 152.092C14.2587 135.308 22.2228 119.522 23.8381 103.932C25.2907 89.9105 20.5308 76.2506 28.6465 64.7036C28.7931 64.4954 28.3173 63.9144 28.4649 63.7068C55.3029 25.9336 99.4031 1.1055 150.207 1.1055Z" fill="url(#paint0_linear_62_9811)"/>
</g>
<mask id="mask1_62_9811" style="mask-type:luminance" maskUnits="userSpaceOnUse" x="0" y="63" width="229" height="237">
<path d="M80.8499 88.284C101.239 106.315 115.064 142.751 122.491 162.325L124.674 168.064C131.329 185.561 140.443 209.525 154.752 224.346C178.781 249.237 212.557 269.504 228.866 275.947L228.11 277.649L228.184 277.679C221.717 281.654 214.956 285.127 207.96 288.07C190.196 295.539 170.686 299.669 150.211 299.669C67.7653 299.669 0.930023 232.758 0.930023 150.219C0.930023 117.991 11.1196 88.1457 28.4499 63.7359L28.4559 63.7274L29.8664 63.6995C31.0154 63.9166 57.319 67.4741 80.8499 88.284Z" fill="white"/>
</mask>
<g mask="url(#mask1_62_9811)">
<path d="M80.8499 88.284C101.239 106.315 115.064 142.751 122.491 162.325L124.674 168.064C131.329 185.561 140.443 209.525 154.752 224.346C178.781 249.237 212.557 269.504 228.866 275.947L228.11 277.649L228.184 277.679C221.717 281.654 214.956 285.127 207.96 288.07C190.196 295.539 170.686 299.669 150.211 299.669C67.7653 299.669 0.930023 232.758 0.930023 150.219C0.930023 117.991 11.1196 88.1457 28.4499 63.7359L28.4559 63.7274L29.8664 63.6995C31.0154 63.9166 57.319 67.4741 80.8499 88.284Z" fill="url(#paint1_linear_62_9811)"/>
</g>
<mask id="mask2_62_9811" style="mask-type:luminance" maskUnits="userSpaceOnUse" x="28" y="62" width="272" height="238">
<path d="M44.9227 62.7885C50.852 62.7943 56.7747 63.1848 62.6537 63.9576C75.5338 65.6413 87.922 69.0969 99.3528 74.0051C107.11 77.3365 118.307 83.8914 123.953 87.7474C134.863 95.1983 148.267 105.475 159.791 114.781C176.257 128.079 195.046 141.581 214.88 142.359C247.736 143.648 274.964 116.5 275.004 83.5814C275.015 78.3123 274.329 73.0649 272.963 67.9763C272.52 66.3271 272.007 64.7068 271.429 63.1175L271.368 62.9068C289.061 87.4694 299.491 117.623 299.491 150.219C299.491 194.268 280.447 233.857 250.161 261.207L250.167 261.213C250.167 261.213 250.171 261.218 250.173 261.22H250.173C264.013 275.003 280.793 285.829 299.491 292.668L299.489 292.668C286.903 297.196 271.406 299.669 257.262 299.669C239.868 299.669 223 295.223 207.957 288.071C192.47 280.706 178.917 270.47 168.735 259.235C155.185 244.285 141.879 215.259 132.519 192.387C128.333 183.108 124.887 173.833 121.885 165.968C114.96 147.825 100.757 108.374 79.6185 89.6801C56.2467 69.0116 28.7398 63.7814 28.5713 63.7494L28.4557 63.7274C29.796 63.5682 31.2579 63.4509 32.6102 63.3301C34.8871 63.1275 37.1839 62.9927 39.4922 62.9034C41.2462 62.8355 43.0052 62.7885 44.7751 62.7885H44.9227Z" fill="white"/>
</mask>
<g mask="url(#mask2_62_9811)">
<path d="M44.9227 62.7885C50.8521 62.7942 56.7748 63.1847 62.6537 63.9575C75.5339 65.6412 87.9221 69.0968 99.3528 74.005C107.11 77.3364 118.307 83.8913 123.953 87.7473C134.863 95.1982 148.267 105.475 159.791 114.781C176.258 128.079 195.046 141.581 214.88 142.359C247.736 143.648 274.964 116.5 275.004 83.5814C275.015 78.3122 274.329 73.0648 272.963 67.9762C272.52 66.327 272.007 64.7067 271.429 63.1174L271.368 62.9068C289.061 87.4693 299.491 117.623 299.491 150.219C329 199 265.5 247.66 250.161 261.207C234.821 274.755 226.216 279.824 208.5 288C190.784 296.176 178.917 270.47 168.735 259.235C155.186 244.285 141.879 215.259 132.519 192.387C128.333 183.108 124.887 173.833 121.885 165.968C114.96 147.825 100.757 108.373 79.6186 89.6801C56.2467 69.0115 28.7399 63.7813 28.5714 63.7493L28.4558 63.7274C29.7961 63.5681 31.258 63.4508 32.6103 63.33C34.8872 63.1274 37.184 62.9926 39.4923 62.9033C41.2463 62.8354 43.0052 62.7885 44.7752 62.7885H44.9227Z" fill="url(#paint2_linear_62_9811)"/>
</g>
<path d="M217.585 53.6096C218.157 54.6083 218.793 55.5688 219.489 56.4852C221.012 58.4938 222.787 60.249 224.714 61.703C226.023 62.6896 228.205 63.9458 229.398 64.5261C231.704 65.6475 234.726 66.9173 237.404 67.9637C241.23 69.4588 245.314 71.3255 247.354 74.5932C250.734 80.0064 248.779 87.2082 243.235 90.3835C242.348 90.8924 241.398 91.2819 240.409 91.5415C240.088 91.6255 239.766 91.695 239.442 91.7506L239.401 91.7607C245.244 92.3782 251.329 91.2335 256.823 88.0961C264.246 83.8563 270.409 76.3006 273.047 68.7351C273.047 68.7351 273.114 67.6627 271.937 64.4315C271 60.5 265.483 56.2014 262.609 55.5668C258.786 54.7223 252.613 55.2737 247.857 55.8978C245.891 56.0854 243.996 56.3975 242.382 56.6486C238.658 57.2277 230.642 58.6315 225.457 56.8684C219.724 54.919 216.195 50.7867 216.173 50.7614L216.158 50.744C216.26 50.9853 216.381 51.2429 216.491 51.4824C216.676 51.8857 216.875 52.2857 217.082 52.6833C217.239 52.9855 217.401 53.2864 217.571 53.5847L217.585 53.6096Z" fill="url(#paint3_linear_62_9811)"/>
<path d="M217.585 53.6096C218.157 54.6083 218.793 55.5688 219.489 56.4852C221.012 58.4938 222.787 60.249 224.714 61.703C226.023 62.6896 228.205 63.9458 229.398 64.5261C231.704 65.6475 234.726 66.9173 237.404 67.9637C241.23 69.4588 245.314 71.3255 247.354 74.5932C250.734 80.0064 248.779 87.2082 243.235 90.3835C242.348 90.8924 241.398 91.2819 240.409 91.5415C240.088 91.6255 239.766 91.695 239.442 91.7506L239.401 91.7607C245.244 92.3782 251.329 91.2335 256.823 88.0961C264.246 83.8563 270.409 76.3006 273.047 68.7351C273.047 68.7351 273.114 67.6627 271.937 64.4315C271 60.5 265.483 56.2014 262.609 55.5668C258.786 54.7223 252.613 55.2737 247.857 55.8978C245.891 56.0854 243.996 56.3975 242.382 56.6486C238.658 57.2277 230.642 58.6315 225.457 56.8684C219.724 54.919 216.195 50.7867 216.173 50.7614L216.158 50.744C216.26 50.9853 216.381 51.2429 216.491 51.4824C216.676 51.8857 216.875 52.2857 217.082 52.6833C217.239 52.9855 217.401 53.2864 217.571 53.5847L217.585 53.6096Z" fill="url(#paint4_linear_62_9811)"/>
<defs>
<linearGradient id="paint0_linear_62_9811" x1="150.103" y1="-24.1845" x2="150.103" y2="244.259" gradientUnits="userSpaceOnUse">
<stop stop-color="#2032AC"/>
<stop offset="0.496265" stop-color="#1B296D"/>
<stop offset="0.989583" stop-color="#1B296D"/>
<stop offset="1" stop-color="#1B296D"/>
</linearGradient>
<linearGradient id="paint1_linear_62_9811" x1="114.898" y1="61.1244" x2="114.898" y2="302.184" gradientUnits="userSpaceOnUse">
<stop stop-color="white"/>
<stop offset="0.783767" stop-color="#C3D4D9"/>
<stop offset="1" stop-color="#C3D4D9"/>
</linearGradient>
<linearGradient id="paint2_linear_62_9811" x1="164.215" y1="91.8788" x2="164.215" y2="579.849" gradientUnits="userSpaceOnUse">
<stop stop-color="#6058FD"/>
<stop offset="0.114643" stop-color="#6058FD"/>
<stop offset="0.920399" stop-color="#F558FD"/>
<stop offset="1" stop-color="#CC00FF"/>
</linearGradient>
<linearGradient id="paint3_linear_62_9811" x1="203.235" y1="94.2671" x2="285.472" y2="47.2984" gradientUnits="userSpaceOnUse">
<stop stop-color="#6058FD"/>
<stop offset="0.114643" stop-color="#6058FD"/>
<stop offset="0.920399" stop-color="#F558FD"/>
<stop offset="1" stop-color="#CC00FF"/>
</linearGradient>
<linearGradient id="paint4_linear_62_9811" x1="233.448" y1="71.612" x2="312.9" y2="26.2337" gradientUnits="userSpaceOnUse">
<stop stop-color="#6058FD"/>
<stop offset="0.114643" stop-color="#6058FD"/>
</linearGradient>
</defs>
</svg>
