<svg width="32" height="32" viewBox="0 0 32 32" fill="none" xmlns="http://www.w3.org/2000/svg">
<rect width="32" height="32" rx="4" fill="#302E32"/>
<path d="M10.877 17.3953L13.0727 24.7631C13.0727 24.7631 13.3473 25.4524 13.6412 25.4524C13.9352 25.4524 18.3074 19.9383 18.3074 19.9383L23.1695 8.55371L10.9553 15.4935L10.877 17.3953Z" fill="#C8DAEA"/>
<path d="M13.7883 19.2842L13.3668 24.7149C13.3668 24.7149 13.1903 26.3789 14.5627 24.7149C15.935 23.0509 17.2486 21.7677 17.2486 21.7677" fill="#A9C6D8"/>
<path d="M10.9172 17.6577L6.40047 15.8737C6.40047 15.8737 5.86067 15.6082 6.03448 15.0061C6.07027 14.882 6.14245 14.7763 6.35837 14.5948C7.35916 13.7491 24.8823 6.11382 24.8823 6.11382C24.8823 6.11382 25.3771 5.91171 25.6689 6.04614C25.7411 6.07323 25.806 6.12308 25.8571 6.19059C25.9082 6.2581 25.9436 6.34084 25.9596 6.43036C25.9911 6.58848 26.0043 6.75115 25.9988 6.91368C25.9974 7.05428 25.9833 7.1846 25.9727 7.38896C25.866 9.47648 22.6722 25.0563 22.6722 25.0563C22.6722 25.0563 22.4811 25.968 21.7965 25.9992C21.6282 26.0058 21.4606 25.9712 21.3036 25.8976C21.1466 25.824 21.0034 25.7128 20.8827 25.5707C19.5392 24.1697 14.8956 20.3866 13.8695 19.5545C13.8464 19.5354 13.8269 19.5105 13.8124 19.4815C13.7978 19.4524 13.7886 19.42 13.7853 19.3863C13.771 19.2986 13.8496 19.1899 13.8496 19.1899C13.8496 19.1899 21.9353 10.4771 22.1504 9.56248C22.1671 9.49162 22.1042 9.45666 22.0196 9.4877C21.4826 9.7272 12.173 16.8543 11.1455 17.6409C11.0715 17.668 10.9934 17.6738 10.9172 17.6577Z" fill="white"/>
</svg>
