<svg width="24" height="24" viewBox="0 0 24 24" fill="none" xmlns="http://www.w3.org/2000/svg">
<path d="M20 18C20 20.2091 16.4183 22 12 22C7.58172 22 4 20.2091 4 18V15.7012C4.45402 16.0607 4.94874 16.3674 5.44824 16.6172C7.28996 17.538 9.64787 18 12 18C14.3521 18 16.71 17.538 18.5518 16.6172C19.0513 16.3674 19.546 16.0607 20 15.7012V18ZM20 12C20 13.0574 19.162 14.0756 17.6572 14.8281C16.157 15.5783 14.1218 16 12 16C9.87823 16 7.84303 15.5783 6.34277 14.8281C4.83796 14.0756 4 13.0574 4 12V9.70117C4.45402 10.0607 4.94874 10.3674 5.44824 10.6172C7.28996 11.538 9.64787 12 12 12C14.3521 12 16.71 11.538 18.5518 10.6172C19.0513 10.3674 19.546 10.0607 20 9.70117V12ZM12 2C16.4183 2 20 3.79086 20 6C20 7.0574 19.162 8.07561 17.6572 8.82812C16.157 9.57826 14.1218 10 12 10C9.87823 10 7.84304 9.57826 6.34277 8.82812C4.83796 8.07561 4 7.0574 4 6C4 3.79086 7.58172 2 12 2Z" fill="#CCD2E3"/>
</svg>
